<svg width="313" height="556" viewBox="0 0 313 556" fill="none" xmlns="http://www.w3.org/2000/svg">
<rect opacity="0.4" width="313" height="556" fill="url(#paint0_linear_382_2901)"/>
<rect x="313" y="29" width="313" height="29" transform="rotate(180 313 29)" fill="#1A1E1B"/>
<path fill-rule="evenodd" clip-rule="evenodd" d="M161.76 8V10.9291H160.494V10.8962C160.494 10.024 160.294 9.55505 159.884 9.0367C159.475 8.51835 158.855 8.25506 158.018 8.25506H157.908C157.071 8.25506 156.451 8.51835 156.042 9.0367C155.714 9.45179 155.52 9.83522 155.456 10.4194C155.054 10.621 154.784 11.0078 154.784 11.4556V16.4087H156.095V14.3758C156.505 14.8511 157.106 15.0923 157.908 15.0923H158.018C158.855 15.0923 159.475 14.8291 159.884 14.3107C160.294 13.7924 160.494 13.093 160.494 12.2209V12.1139H161.76V14.3487C161.753 14.4099 161.75 14.4712 161.75 14.5329C161.75 14.8127 161.823 15.0759 161.96 15.3146C162.074 15.4969 162.213 15.6479 162.385 15.7707C162.59 15.9208 162.775 15.9843 162.81 15.9955C163.02 16.0702 163.254 16.1044 163.517 16.1044C163.635 16.1044 163.753 16.0962 163.89 16.0715C164.7 15.9728 165.31 15.6848 165.738 15.1994C166.157 14.7139 166.44 14.1133 166.576 13.3893C166.949 13.488 167.214 13.6443 167.377 13.8665C167.541 14.0804 167.623 14.3354 167.623 14.6152C167.623 14.8538 167.578 15.0924 167.487 15.3392C167.396 15.5861 167.286 15.7918 167.168 15.9728C167.05 16.1538 166.949 16.2607 166.877 16.3019H168.425C168.561 16.0551 168.67 15.7753 168.752 15.4791C168.834 15.1829 168.871 14.8867 168.871 14.5905C168.871 14.0146 168.698 13.5209 168.352 13.1013C168.097 12.7886 167.723 12.5582 167.241 12.4019C166.904 12.295 166.695 11.9988 166.713 11.6779L166.74 11.1184H165.429L165.365 12.1715L165.365 12.1715C165.055 12.188 164.746 12.2045 164.455 12.2374C163.895 12.3074 163.425 12.4435 163.029 12.6598L163.071 8H161.76ZM159.183 12.2209C159.183 12.8379 159.092 13.2905 158.901 13.5784C158.71 13.8664 158.418 14.0063 158.027 14.0063H157.918C157.526 14.0063 157.235 13.8664 157.043 13.5784C156.852 13.2905 156.761 12.8379 156.761 12.2209V10.8962C156.761 10.2791 156.852 10.0569 157.043 9.76897C157.235 9.481 157.526 9.34113 157.918 9.34113H158.027C158.418 9.34113 158.71 9.481 158.901 9.76897C159.092 10.0569 159.183 10.2709 159.183 10.8962V12.2209ZM145.323 10.4437C145.797 10.3861 146.216 10.3532 146.598 10.3532C146.999 10.3532 147.363 10.3861 147.691 10.4437C147.849 10.1653 147.979 9.91164 148.094 9.68816L148.094 9.6881L148.146 9.588H142.947V8.50193H149.53C149.74 8.50193 149.894 8.69117 149.831 8.88041C149.567 9.60445 149.257 10.2627 148.902 10.8468C148.951 10.8824 148.998 10.9137 149.041 10.9425L149.041 10.9425C149.098 10.9806 149.148 11.0142 149.189 11.0473C149.259 11.0916 149.324 11.1389 149.348 11.1675C149.375 11.3567 149.812 13.9732 152.489 13.7839C152.489 13.7839 153.099 11.2827 149.94 11.1346C150.604 11.62 151.287 12.5662 151.287 12.5662C150.532 11.8586 149.539 11.1264 149.539 11.1264L149.33 10.97C149.43 10.9042 149.557 10.8384 149.676 10.7808C150.058 10.608 150.477 10.5257 150.941 10.5257H151.051C151.524 10.5257 151.943 10.608 152.316 10.7808C152.69 10.9536 152.981 11.1922 153.2 11.4966C153.409 11.801 153.518 12.1548 153.518 12.558V13.0763C153.518 13.4713 153.418 13.8168 153.2 14.1295C152.99 14.4422 152.699 14.6808 152.316 14.8535C151.934 15.0263 151.515 15.1086 151.051 15.1086H150.941C150.477 15.1086 150.049 15.0263 149.676 14.8535C149.302 14.6808 149.011 14.4422 148.792 14.1213C148.583 13.8168 148.474 13.463 148.474 13.0681V12.558C148.474 12.5041 148.475 12.4511 148.479 12.399C148.474 12.3803 148.47 12.3621 148.465 12.3443C148.401 12.081 148.31 11.9411 148.255 11.8753C148.246 11.8671 148.239 11.8589 148.233 11.8506L148.233 11.8506L148.233 11.8506C148.226 11.8424 148.219 11.8342 148.21 11.826C147.345 12.838 146.298 13.4139 145.059 13.562C144.895 13.5867 144.741 13.5949 144.586 13.5949C144.212 13.5949 143.875 13.5291 143.593 13.4057C143.311 13.2823 143.092 13.1177 142.938 12.9038C142.783 12.6899 142.71 12.4677 142.71 12.2291C142.71 11.9658 142.81 11.7108 142.992 11.4639C143.174 11.2171 143.466 11.0032 143.857 10.8222C144.249 10.6329 144.741 10.5095 145.323 10.4437ZM144.622 12.5171L144.886 12.5006C145.651 12.4019 146.325 12.0563 146.899 11.4557L146.607 11.4475C146.316 11.4475 145.952 11.4804 145.496 11.5298C145.023 11.5791 144.659 11.6779 144.404 11.8095C144.149 11.9494 144.021 12.081 144.021 12.2209C144.021 12.3114 144.076 12.3772 144.176 12.4348C144.285 12.4924 144.431 12.5171 144.622 12.5171ZM147.099 13.5619V14.5821C147.099 14.9688 147.445 15.2897 147.882 15.2979H150.878L150.872 15.6511L150.877 15.6516C150.875 15.6702 150.873 15.6888 150.871 15.7071L150.861 16.3314L150.862 16.3701L150.862 16.3702C150.865 16.4541 150.868 16.5327 150.868 16.606C150.868 17.0503 150.941 17.3383 151.087 17.4781C151.196 17.5769 151.415 17.6591 151.733 17.7167C152.052 17.7743 152.443 17.799 152.899 17.799C153.427 17.799 154.001 17.7661 154.62 17.6921C155.23 17.618 155.822 17.511 156.368 17.3794V18.5066C155.813 18.63 155.239 18.7205 154.647 18.7946C154.055 18.8686 153.482 18.9015 152.926 18.9015C152.27 18.9015 151.697 18.8439 151.205 18.737C150.713 18.63 150.358 18.4572 150.122 18.2269C149.912 18.0129 149.766 17.7743 149.675 17.5028C149.593 17.2313 149.548 16.9269 149.548 16.5813C149.548 16.5146 149.549 16.4433 149.551 16.3675H142V15.2815H145.788V13.5619H147.099ZM169.991 17.2974H161.122V18.3834H169.991V17.2974ZM163.106 14.9827L163.106 14.9827C162.977 15.0549 162.824 15.1408 162.724 15.1829C162.688 15.1994 162.679 15.2405 162.688 15.257C162.706 15.2734 162.724 15.2899 162.752 15.2899C162.761 15.2899 162.77 15.2899 162.779 15.2816C162.938 15.2168 163.216 15.0576 163.332 14.9912L163.371 14.969C163.462 15.0019 163.571 15.0184 163.708 15.0019C164.546 14.8949 165.074 14.319 165.274 13.2741C164.992 13.2905 164.782 13.307 164.637 13.3234C164.3 13.3646 164.008 13.4468 163.772 13.5785C163.535 13.7101 163.353 13.8582 163.234 14.031C163.116 14.2038 163.052 14.3684 163.052 14.5247C163.052 14.6316 163.08 14.7139 163.125 14.788C163.289 14.7057 163.462 14.5987 163.644 14.4753C163.644 14.4753 164.272 14.0722 164.573 13.8006C164.573 13.8006 164.236 14.2532 163.699 14.607L163.234 14.9114C163.198 14.9313 163.153 14.9561 163.106 14.9827Z" fill="#E0E0E0"/>
<path d="M156.927 20.0243V21.6212C156.927 21.6934 156.909 21.7656 156.882 21.8197C156.855 21.8738 156.81 21.9189 156.756 21.955C156.702 21.9821 156.638 22.0001 156.566 22.0001C156.557 22.0001 156.548 22.0001 156.53 22.0001V21.8738C156.539 21.8738 156.548 21.8738 156.566 21.8738C156.611 21.8738 156.657 21.8648 156.693 21.8468C156.729 21.8287 156.756 21.8017 156.774 21.7565C156.792 21.7205 156.801 21.6754 156.801 21.6212V20.0243H156.927ZM156.81 19.7627C156.801 19.7537 156.783 19.7356 156.774 19.7266C156.765 19.7086 156.765 19.6905 156.765 19.6725C156.765 19.6545 156.765 19.6364 156.783 19.6274C156.783 19.6093 156.801 19.6003 156.81 19.5913C156.828 19.5823 156.846 19.5823 156.864 19.5823C156.882 19.5823 156.9 19.5823 156.918 19.5913C156.936 19.6003 156.945 19.6093 156.954 19.6274C156.963 19.6454 156.972 19.6635 156.972 19.6815C156.972 19.6996 156.963 19.7176 156.954 19.7266C156.945 19.7356 156.936 19.7537 156.918 19.7627C156.9 19.7717 156.882 19.7717 156.864 19.7717C156.846 19.7717 156.828 19.7717 156.81 19.7627Z" fill="#E0E0E0"/>
<path d="M157.431 21.3955C157.341 21.3323 157.26 21.2421 157.215 21.1248C157.161 21.0165 157.134 20.8902 157.134 20.7459C157.134 20.6015 157.161 20.4752 157.215 20.3579C157.26 20.2497 157.341 20.1595 157.431 20.0963C157.521 20.0332 157.63 19.9971 157.747 19.9971C157.864 19.9971 157.972 20.0332 158.062 20.0963C158.153 20.1595 158.243 20.2497 158.297 20.367C158.351 20.4843 158.378 20.6106 158.378 20.7549C158.378 20.8993 158.351 21.0256 158.297 21.1338C158.243 21.2421 158.162 21.3323 158.071 21.3955C157.981 21.4586 157.873 21.4947 157.756 21.4947C157.639 21.4947 157.531 21.4586 157.431 21.3955ZM158.008 21.2872C158.081 21.2331 158.144 21.1609 158.18 21.0617C158.216 20.9624 158.243 20.8632 158.243 20.7459C158.243 20.6286 158.225 20.5294 158.18 20.4301C158.135 20.3309 158.081 20.2677 158.008 20.2046C157.936 20.1414 157.846 20.1234 157.756 20.1234C157.666 20.1234 157.576 20.1504 157.503 20.2046C157.431 20.2587 157.368 20.3399 157.323 20.4301C157.278 20.5203 157.269 20.6286 157.269 20.7459C157.269 20.8632 157.287 20.9624 157.332 21.0617C157.377 21.1609 157.431 21.2331 157.503 21.2872C157.576 21.3413 157.666 21.3684 157.756 21.3684C157.846 21.3684 157.936 21.3413 158.008 21.2872Z" fill="#E0E0E0"/>
<path d="M158.595 19.7627C158.577 19.7537 158.559 19.7356 158.55 19.7266C158.541 19.7086 158.541 19.6905 158.541 19.6725C158.541 19.6545 158.55 19.6364 158.559 19.6274C158.568 19.6093 158.577 19.6003 158.595 19.5913C158.613 19.5823 158.631 19.5823 158.649 19.5823C158.667 19.5823 158.685 19.5823 158.703 19.5913C158.721 19.6003 158.73 19.6093 158.739 19.6274C158.748 19.6454 158.757 19.6635 158.757 19.6815C158.757 19.6996 158.748 19.7176 158.739 19.7266C158.721 19.7356 158.712 19.7537 158.694 19.7627C158.676 19.7717 158.658 19.7717 158.64 19.7717C158.622 19.7717 158.604 19.7717 158.595 19.7627ZM158.577 20.0243H158.712V21.4588H158.577V20.0243Z" fill="#E0E0E0"/>
<path d="M159.118 21.4586H158.992V20.0241H159.118V20.2497H159.127C159.163 20.1775 159.218 20.1144 159.29 20.0693C159.362 20.0241 159.452 20.0061 159.551 20.0061C159.65 20.0061 159.732 20.0241 159.804 20.0693C159.876 20.1053 159.93 20.1685 159.975 20.2497C160.02 20.3309 160.038 20.4211 160.038 20.5204V21.4586H159.912V20.5294C159.912 20.4482 159.894 20.376 159.867 20.3128C159.84 20.2497 159.786 20.2046 159.732 20.1775C159.677 20.1505 159.605 20.1234 159.524 20.1234C159.443 20.1234 159.38 20.1414 159.317 20.1775C159.254 20.2136 159.209 20.2587 159.173 20.3219C159.136 20.385 159.118 20.4572 159.118 20.5384V21.4586Z" fill="#E0E0E0"/>
<path d="M161.732 20.0244H161.868V21.4589H161.732V21.2243H161.714C161.678 21.2965 161.624 21.3597 161.552 21.4048C161.48 21.4589 161.39 21.4769 161.291 21.4769C161.2 21.4769 161.11 21.4589 161.038 21.4138C160.966 21.3777 160.912 21.3145 160.867 21.2333C160.822 21.1521 160.804 21.0619 160.804 20.9627V20.0244H160.948V20.9627C160.948 21.0349 160.966 21.107 160.993 21.1702C161.02 21.2243 161.065 21.2694 161.128 21.2965C161.182 21.3326 161.246 21.3506 161.327 21.3506C161.399 21.3506 161.462 21.3326 161.525 21.2965C161.588 21.2604 161.633 21.2153 161.678 21.1521C161.714 21.089 161.732 21.0168 161.732 20.9356V20.0244Z" fill="#E0E0E0"/>
<path d="M162.823 20.1865C162.76 20.1414 162.688 20.1234 162.598 20.1234C162.525 20.1234 162.471 20.1324 162.417 20.1595C162.363 20.1775 162.318 20.2136 162.291 20.2497C162.264 20.2948 162.246 20.3399 162.246 20.394C162.246 20.4572 162.264 20.5113 162.309 20.5564C162.354 20.6015 162.426 20.6286 162.516 20.6557L162.733 20.7098C162.85 20.7369 162.931 20.782 162.994 20.8451C163.057 20.9083 163.085 20.9895 163.085 21.0797C163.085 21.1609 163.066 21.2331 163.021 21.2872C162.976 21.3504 162.922 21.4045 162.841 21.4406C162.76 21.4676 162.67 21.4857 162.571 21.4857C162.471 21.4857 162.39 21.4676 162.318 21.4406C162.246 21.4135 162.192 21.3684 162.147 21.3143C162.102 21.2601 162.075 21.188 162.057 21.1068H162.201C162.219 21.188 162.255 21.2601 162.318 21.3052C162.381 21.3504 162.462 21.3684 162.571 21.3684C162.643 21.3684 162.715 21.3594 162.769 21.3323C162.823 21.3052 162.868 21.2782 162.904 21.2331C162.94 21.188 162.949 21.1428 162.949 21.0797C162.949 21.0165 162.931 20.9624 162.886 20.9173C162.841 20.8812 162.778 20.8451 162.688 20.8271L162.471 20.773C162.354 20.7459 162.264 20.7008 162.201 20.6376C162.138 20.5745 162.111 20.4933 162.111 20.4031C162.111 20.3219 162.129 20.2587 162.174 20.1956C162.219 20.1324 162.273 20.0873 162.345 20.0512C162.417 20.0151 162.498 19.9971 162.598 19.9971C162.688 19.9971 162.76 20.0151 162.832 20.0422C162.904 20.0692 162.949 20.1234 162.985 20.1775C163.03 20.2316 163.057 20.2948 163.066 20.3579H162.931C162.913 20.2858 162.877 20.2316 162.823 20.1865Z" fill="#E0E0E0"/>
<path d="M163.302 21.9638H163.193L163.347 21.3142H163.491L163.302 21.9638Z" fill="#E0E0E0"/>
<path d="M164.284 19.5461H165.483V19.7988H164.573V20.3762H165.42V20.6288H164.573V21.2152H165.492V21.4678H164.284V19.5461Z" fill="#E0E0E0"/>
<path d="M166.448 20.8181C166.43 20.8181 166.394 20.8181 166.349 20.8271C166.286 20.8271 166.232 20.8361 166.187 20.8361C166.088 20.8451 166.015 20.8632 165.97 20.8993C165.925 20.9354 165.889 20.9895 165.889 21.0617C165.889 21.1068 165.898 21.1429 165.925 21.1789C165.952 21.215 165.979 21.2331 166.024 21.2511C166.07 21.2692 166.115 21.2782 166.169 21.2692C166.241 21.2692 166.304 21.2511 166.367 21.2241C166.421 21.197 166.466 21.1519 166.493 21.1068C166.52 21.0617 166.538 21.0075 166.538 20.9444V20.4933C166.538 20.4392 166.529 20.394 166.502 20.358C166.484 20.3219 166.448 20.2858 166.403 20.2677C166.358 20.2497 166.304 20.2407 166.241 20.2407C166.16 20.2407 166.097 20.2587 166.042 20.2858C165.988 20.3219 165.961 20.367 165.943 20.4211H165.664C165.673 20.3399 165.7 20.2677 165.754 20.2046C165.808 20.1414 165.871 20.0963 165.961 20.0602C166.042 20.0241 166.142 20.0061 166.259 20.0061C166.349 20.0061 166.439 20.0241 166.52 20.0512C166.601 20.0783 166.674 20.1324 166.737 20.2046C166.791 20.2768 166.827 20.385 166.827 20.5113V21.4676H166.556V21.2601H166.547C166.511 21.3233 166.466 21.3774 166.394 21.4225C166.322 21.4676 166.232 21.4857 166.124 21.4857C166.033 21.4857 165.952 21.4676 165.871 21.4316C165.799 21.3955 165.736 21.3504 165.7 21.2782C165.655 21.215 165.637 21.1338 165.637 21.0436C165.637 20.8902 165.691 20.791 165.79 20.7279C165.889 20.6647 166.015 20.6286 166.178 20.6196C166.223 20.6196 166.268 20.6106 166.322 20.6106C166.376 20.6106 166.43 20.6015 166.475 20.6015C166.511 20.6015 166.538 20.6015 166.574 20.6015V20.8091C166.502 20.8091 166.466 20.8181 166.448 20.8181Z" fill="#E0E0E0"/>
<path d="M167.007 20.0241H167.277V20.2497H167.295C167.322 20.1685 167.367 20.1144 167.431 20.0692C167.494 20.0241 167.575 19.9971 167.656 19.9971C167.719 19.9971 167.764 19.9971 167.773 20.0061V20.2767C167.755 20.2767 167.737 20.2677 167.71 20.2677C167.683 20.2677 167.656 20.2587 167.629 20.2587C167.566 20.2587 167.503 20.2767 167.458 20.3038C167.404 20.3309 167.367 20.367 167.331 20.4211C167.304 20.4662 167.286 20.5294 167.286 20.5835V21.4586H167.007V20.0241Z" fill="#E0E0E0"/>
<path d="M168.612 20.2498H167.827V20.0242H168.612V20.2498ZM168.314 19.6814V21.0347C168.314 21.0888 168.323 21.1249 168.332 21.152C168.35 21.179 168.368 21.1971 168.395 21.2061C168.422 21.2151 168.449 21.2241 168.485 21.2241C168.503 21.2241 168.512 21.2241 168.53 21.2241C168.548 21.2241 168.566 21.2241 168.585 21.2241H168.621V21.4677C168.566 21.4768 168.512 21.4768 168.449 21.4768C168.377 21.4768 168.305 21.4587 168.242 21.4316C168.179 21.4046 168.125 21.3595 168.089 21.3053C168.053 21.2512 168.035 21.179 168.035 21.0978V19.6814H168.314Z" fill="#E0E0E0"/>
<path d="M169.063 21.4588H168.783V19.5461H169.063V20.2589H169.081C169.117 20.1777 169.171 20.1145 169.234 20.0694C169.306 20.0243 169.396 20.0063 169.505 20.0063C169.604 20.0063 169.694 20.0243 169.766 20.0694C169.838 20.1055 169.901 20.1687 169.937 20.2498C169.973 20.331 170 20.4303 170 20.5476V21.4588H169.721V20.5837C169.721 20.5115 169.712 20.4574 169.685 20.4032C169.658 20.3491 169.622 20.313 169.577 20.295C169.532 20.2769 169.477 20.2589 169.414 20.2589C169.351 20.2589 169.288 20.2769 169.234 20.304C169.18 20.331 169.144 20.3762 169.117 20.4303C169.09 20.4844 169.072 20.5476 169.072 20.6197V21.4588H169.063Z" fill="#E0E0E0"/>
<path d="M17.3935 11.7529C15.5378 13.6086 15.5378 16.6131 17.3799 18.4688C18.3791 16.1576 20.16 14.2272 22.3828 13.0784C20.4999 14.669 19.1812 16.8918 18.719 19.4136C20.4863 20.2497 22.6614 19.9438 24.1229 18.4824C26.4884 16.1169 26.8758 9 26.8758 9C26.8758 9 19.759 9.38745 17.3935 11.7529Z" fill="white"/>
<path d="M296.235 9.35948H294.081L292.837 8H288.758L287.514 9.35948H285.359C284.612 9.35948 284 9.97124 284 10.719V18.8758C284 19.6235 284.612 20.2353 285.359 20.2353H296.235C296.983 20.2353 297.595 19.6235 297.595 18.8758V10.719C297.595 9.97124 296.983 9.35948 296.235 9.35948ZM290.797 18.1961C288.921 18.1961 287.399 16.6735 287.399 14.7974H286.039L287.739 13.098L289.438 14.7974H288.078C288.078 16.2996 289.295 17.5163 290.797 17.5163C291.192 17.5163 291.565 17.428 291.899 17.2784L292.402 17.7814C291.919 18.0329 291.382 18.1961 290.797 18.1961ZM293.856 16.4967L292.157 14.7974H293.516C293.516 13.2952 292.3 12.0784 290.797 12.0784C290.403 12.0784 290.029 12.1668 289.696 12.3163L289.193 11.8201C289.676 11.5618 290.213 11.3987 290.797 11.3987C292.673 11.3987 294.196 12.9213 294.196 14.7974H295.556L293.856 16.4967Z" fill="white"/>
<path d="M38.0938 18H37.1758L39.7637 10.9297H40.6914L43.2793 18H42.3516L41.6436 16.0078H38.8018L38.0938 18ZM39.0703 15.2363H41.375L40.252 12.0723H40.1934L39.0703 15.2363ZM47.0785 15.8223V12.6973H47.9086V18H47.0785V17.1016H47.0199C46.7709 17.6387 46.2436 18.0684 45.4477 18.0684C44.4418 18.0684 43.724 17.4141 43.7289 16.0664V12.6973H44.5687V16.0078C44.5687 16.7695 45.0424 17.2627 45.7211 17.2578C46.3217 17.2627 47.0736 16.8135 47.0785 15.8223ZM51.1707 12.6973V13.4004H50.0574V16.4766C50.0525 17.1553 50.3943 17.2676 50.7508 17.2676C50.9021 17.2676 51.1268 17.2529 51.2488 17.248V18.0293C51.117 18.0488 50.9119 18.0684 50.6629 18.0684C49.9549 18.0684 49.2127 17.6289 49.2078 16.6914V13.4004H48.407V12.6973H49.2078V11.4277H50.0574V12.6973H51.1707ZM53.9641 18.1074C52.5188 18.1123 51.5422 17.0186 51.5422 15.373C51.5422 13.7178 52.5188 12.6289 53.9641 12.6289C55.4045 12.6289 56.3713 13.7178 56.3664 15.373C56.3713 17.0186 55.4045 18.1123 53.9641 18.1074ZM52.382 15.373C52.3869 16.4326 52.885 17.3652 53.9641 17.3652C55.0334 17.3652 55.5266 16.4326 55.5266 15.373C55.5266 14.3184 55.0334 13.3711 53.9641 13.3711C52.885 13.3711 52.3869 14.3184 52.382 15.373Z" fill="white"/>
<rect y="470" width="313" height="86" fill="#1A1E1B"/>
<path d="M65.1035 482.93L67.1836 488.857H67.2617L69.3516 482.93H70.2793L67.6914 490H66.7637L64.1758 482.93H65.1035ZM71.7152 482.93V490H70.8363V482.93H71.7152ZM75.075 490H72.8777V482.93H75.1629C77.2283 482.93 78.4441 484.253 78.4441 486.455C78.4441 488.662 77.2283 490 75.075 490ZM73.7566 489.219H75.0164C76.7498 489.219 77.5848 488.169 77.5848 486.455C77.5848 484.746 76.7498 483.711 75.1043 483.711H73.7566V489.219ZM79.3332 490V482.93H83.6203V483.711H80.2121V486.074H83.3957V486.846H80.2121V489.219H83.6691V490H79.3332ZM90.5836 486.465C90.5885 488.701 89.2701 490.098 87.4586 490.098C85.6422 490.098 84.3287 488.701 84.3336 486.465C84.3287 484.229 85.6422 482.832 87.4586 482.832C89.2701 482.832 90.5885 484.229 90.5836 486.465ZM85.1832 486.465C85.1881 488.286 86.1793 489.272 87.4586 489.277C88.7379 489.272 89.7291 488.286 89.734 486.465C89.7291 484.639 88.7379 483.652 87.4586 483.652C86.1793 483.652 85.1881 484.639 85.1832 486.465Z" fill="white"/>
<path d="M140.723 490V482.93H143.242C144.888 482.93 145.693 483.916 145.693 485.225C145.693 486.528 144.883 487.52 143.242 487.52H141.797V490H140.723ZM141.797 486.602H143.135C144.175 486.606 144.609 486.021 144.609 485.225C144.609 484.424 144.175 483.853 143.135 483.848H141.797V486.602ZM146.426 490V482.93H147.5V485.996H151.016V482.93H152.09V490H151.016V486.914H147.5V490H146.426ZM159.278 486.465C159.278 488.726 157.921 490.098 156.095 490.098C154.254 490.098 152.901 488.721 152.901 486.465C152.901 484.204 154.254 482.832 156.095 482.832C157.921 482.832 159.278 484.204 159.278 486.465ZM153.966 486.465C153.971 488.184 154.874 489.116 156.095 489.111C157.305 489.116 158.209 488.184 158.214 486.465C158.209 484.746 157.305 483.813 156.095 483.818C154.874 483.813 153.971 484.746 153.966 486.465ZM159.435 483.857V482.93H164.913V483.857H162.716V490H161.642V483.857H159.435ZM171.447 486.465C171.447 488.726 170.089 490.098 168.263 490.098C166.422 490.098 165.07 488.721 165.07 486.465C165.07 484.204 166.422 482.832 168.263 482.832C170.089 482.832 171.447 484.204 171.447 486.465ZM166.134 486.465C166.139 488.184 167.043 489.116 168.263 489.111C169.474 489.116 170.378 488.184 170.382 486.465C170.378 484.746 169.474 483.813 168.263 483.818C167.043 483.813 166.139 484.746 166.134 486.465Z" fill="#66A776"/>
<ellipse cx="156.498" cy="524.5" rx="21.681" ry="21.6818" fill="white"/>
<path fill-rule="evenodd" clip-rule="evenodd" d="M156.499 551C171.134 551 182.998 539.136 182.998 524.5C182.998 509.864 171.134 498 156.499 498C141.864 498 130 509.864 130 524.5C130 539.136 141.864 551 156.499 551ZM156.5 548.109C169.538 548.109 180.108 537.539 180.108 524.5C180.108 511.461 169.538 500.891 156.5 500.891C143.461 500.891 132.891 511.461 132.891 524.5C132.891 537.539 143.461 548.109 156.5 548.109Z" fill="white"/>
<circle opacity="0.8" cx="277.5" cy="530.5" r="9.5" fill="#F1F1F1"/>
<circle opacity="0.5" cx="269.5" cy="517.5" r="9.5" fill="#F1F1F1"/>
<circle opacity="0.2" cx="261.5" cy="530.5" r="9.5" fill="#F1F1F1"/>
<path d="M224.639 484.707C224.565 484.014 223.921 483.613 223.076 483.613C222.139 483.613 221.528 484.102 221.523 484.775C221.528 485.518 222.354 485.796 222.891 485.928L223.594 486.123C224.351 486.318 225.596 486.753 225.596 488.076C225.596 489.229 224.668 490.122 223.027 490.127C221.504 490.122 220.562 489.336 220.479 488.164H221.377C221.45 488.955 222.188 489.331 223.027 489.326C224.004 489.331 224.736 488.828 224.736 488.057C224.736 487.368 224.082 487.104 223.34 486.895L222.471 486.66C221.362 486.338 220.669 485.771 220.674 484.814C220.669 483.618 221.733 482.832 223.105 482.832C224.478 482.832 225.464 483.633 225.498 484.707H224.639ZM229.014 487.783H229.971L230.718 488.76C231.246 488.296 231.578 487.52 231.582 486.465C231.578 484.639 230.586 483.652 229.307 483.652C228.028 483.652 227.037 484.639 227.032 486.465C227.037 488.286 228.028 489.272 229.307 489.277C229.571 489.277 229.825 489.233 230.059 489.15L229.014 487.783ZM226.182 486.465C226.177 484.229 227.491 482.832 229.307 482.832C231.119 482.832 232.437 484.229 232.432 486.465C232.437 487.788 231.978 488.813 231.226 489.434L232.149 490.664H231.192L230.577 489.839C230.196 490.01 229.766 490.098 229.307 490.098C227.491 490.098 226.177 488.701 226.182 486.465ZM237.95 482.93H238.829V487.607C238.829 489.062 237.74 490.122 236.075 490.127C234.405 490.122 233.321 489.062 233.321 487.607V482.93H234.2V487.539C234.195 488.564 234.908 489.302 236.075 489.307C237.242 489.302 237.945 488.564 237.95 487.539V482.93ZM240.304 490H239.386L241.974 482.93H242.902L245.489 490H244.562L243.854 488.008H241.012L240.304 490ZM241.28 487.236H243.585L242.462 484.072H242.404L241.28 487.236ZM246.046 490V482.93H248.449C250.104 482.93 250.861 483.848 250.861 485.107C250.861 486.045 250.441 486.777 249.543 487.09L251.134 490H250.109L248.629 487.251C248.576 487.256 248.517 487.256 248.459 487.256H246.925V490H246.046ZM246.925 486.455H248.42C249.547 486.455 249.987 485.947 249.992 485.107C249.987 484.263 249.547 483.711 248.41 483.711H246.925V486.455ZM251.73 490V482.93H256.018V483.711H252.609V486.074H255.793V486.846H252.609V489.219H256.066V490H251.73Z" fill="white"/>
<circle cx="156" cy="476" r="2" fill="#66A776"/>
<line x1="95.5" y1="28" x2="95.5" y2="478" stroke="#1A1E1B"/>
<line x1="313" y1="173.5" x2="-4.37113e-08" y2="173.5" stroke="#1A1E1B"/>
<line x1="216.5" y1="22" x2="216.5" y2="472" stroke="#1A1E1B"/>
<line x1="313" y1="327.5" x2="-4.37113e-08" y2="327.5" stroke="#1A1E1B"/>
<rect y="375" width="313" height="95" fill="url(#paint1_linear_382_2901)"/>
<rect x="313" y="124" width="313" height="95" transform="rotate(-180 313 124)" fill="url(#paint2_linear_382_2901)"/>
<defs>
<linearGradient id="paint0_linear_382_2901" x1="42.0449" y1="-68.4629" x2="341.367" y2="449.083" gradientUnits="userSpaceOnUse">
<stop stop-color="#BCF4FF"/>
<stop offset="0.692879" stop-color="#FFF8EF"/>
</linearGradient>
<linearGradient id="paint1_linear_382_2901" x1="163.5" y1="491.327" x2="163.5" y2="414.745" gradientUnits="userSpaceOnUse">
<stop stop-color="#2E302D"/>
<stop offset="1" stop-color="#2E302D" stop-opacity="0"/>
</linearGradient>
<linearGradient id="paint2_linear_382_2901" x1="476.5" y1="240.327" x2="476.5" y2="163.745" gradientUnits="userSpaceOnUse">
<stop stop-color="#2E302D"/>
<stop offset="1" stop-color="#2E302D" stop-opacity="0"/>
</linearGradient>
</defs>
</svg>
