<svg width="40" height="40" viewBox="0 0 40 40" fill="none" xmlns="http://www.w3.org/2000/svg">
<circle cx="20" cy="20" r="20" fill="#2E302D"/>
<g clip-path="url(#clip0_471_6723)">
<path d="M24.5833 11.7501C24.824 11.5094 25.1098 11.3184 25.4244 11.1881C25.739 11.0578 26.0761 10.9907 26.4166 10.9907C26.7571 10.9907 27.0942 11.0578 27.4088 11.1881C27.7233 11.3184 28.0092 11.5094 28.2499 11.7501C28.4907 11.9909 28.6817 12.2767 28.812 12.5913C28.9422 12.9058 29.0093 13.243 29.0093 13.5834C29.0093 13.9239 28.9422 14.2611 28.812 14.5756C28.6817 14.8902 28.4907 15.176 28.2499 15.4168L15.8749 27.7918L10.8333 29.1668L12.2083 24.1251L24.5833 11.7501Z" stroke="#F1F1F1" stroke-width="2" stroke-linecap="round" stroke-linejoin="round"/>
</g>
<defs>
<clipPath id="clip0_471_6723">
<rect width="22" height="22" fill="white" transform="translate(9 9)"/>
</clipPath>
</defs>
</svg>
