<svg width="313" height="556" viewBox="0 0 313 556" fill="none" xmlns="http://www.w3.org/2000/svg">
<g opacity="0.5">
<rect width="313" height="556" fill="url(#paint0_linear_382_2985)"/>
</g>
<path fill-rule="evenodd" clip-rule="evenodd" d="M313 0H0V556H313V0ZM42 27.9777C33.1634 27.9777 26 35.1411 26 43.9776V398.669C26 407.505 33.1634 414.669 42 414.669H271.688C280.524 414.669 287.688 407.505 287.688 398.669V43.9777C287.688 35.1411 280.524 27.9777 271.688 27.9777H42Z" fill="white"/>
<path d="M219.64 464.358C221.064 465.108 221.064 467.147 219.64 467.897L208.682 473.669C207.35 474.371 205.75 473.405 205.75 471.9L205.75 460.356C205.75 458.85 207.35 457.885 208.682 458.586L219.64 464.358Z" fill="#417E59"/>
<path d="M208.64 464.358C210.064 465.108 210.064 467.147 208.64 467.897L197.682 473.669C196.35 474.371 194.75 473.405 194.75 471.9L194.75 460.356C194.75 458.85 196.35 457.885 197.682 458.586L208.64 464.358Z" fill="#417E59"/>
<path d="M93.3595 467.897C91.9356 467.147 91.9356 465.108 93.3595 464.358L104.318 458.586C105.65 457.884 107.25 458.85 107.25 460.355L107.25 471.9C107.25 473.405 105.65 474.371 104.318 473.669L93.3595 467.897Z" fill="#417E59"/>
<path d="M104.36 467.897C102.936 467.147 102.936 465.108 104.36 464.358L115.318 458.586C116.65 457.884 118.25 458.85 118.25 460.355L118.25 471.9C118.25 473.405 116.65 474.371 115.318 473.669L104.36 467.897Z" fill="#417E59"/>
<rect x="148" y="456.635" width="8" height="20.9832" rx="2" fill="#417E59"/>
<rect x="157" y="456.635" width="8" height="20.9832" rx="2" fill="#417E59"/>
<path d="M26 432.654H288" stroke="#747474" stroke-width="3" stroke-linecap="round"/>
<path d="M26 431.654C25.4477 431.654 25 432.102 25 432.654C25 433.207 25.4477 433.654 26 433.654V431.654ZM95.6667 432.654C95.6667 435.6 98.0545 437.988 101 437.988C103.946 437.988 106.333 435.6 106.333 432.654C106.333 429.709 103.946 427.321 101 427.321C98.0545 427.321 95.6667 429.709 95.6667 432.654ZM26 433.654H101V431.654H26V433.654Z" fill="#2E302D"/>
<defs>
<linearGradient id="paint0_linear_382_2985" x1="42.0449" y1="-68.4629" x2="341.367" y2="449.083" gradientUnits="userSpaceOnUse">
<stop stop-color="#BCF4FF"/>
<stop offset="0.692879" stop-color="#FFF8EF"/>
</linearGradient>
</defs>
</svg>
