<svg width="134" height="134" viewBox="0 0 134 134" fill="none" xmlns="http://www.w3.org/2000/svg">
<g id="Group 33876">
<circle id="Ellipse 475" cx="66.9997" cy="66.9997" r="66.9997" fill="url(#paint0_linear_222_2631)"/>
<circle id="Ellipse 479" cx="66.9431" cy="66.9434" r="40.0451" transform="rotate(10.5468 66.9431 66.9434)" fill="url(#paint1_linear_222_2631)" fill-opacity="0.6"/>
<path id="Union" fill-rule="evenodd" clip-rule="evenodd" d="M98.8125 31.0138C98.8125 31.4646 99.0313 31.8643 99.3684 32.1125C99.3516 32.1981 99.3428 32.2865 99.3428 32.3771C99.3428 33.1301 99.9532 33.7405 100.706 33.7405C101.02 33.7405 101.309 33.6345 101.539 33.4564C101.77 33.6345 102.059 33.7405 102.372 33.7405C103.125 33.7405 103.736 33.1301 103.736 32.3771C103.736 32.2865 103.727 32.1981 103.71 32.1125C104.047 31.8643 104.266 31.4646 104.266 31.0138C104.266 30.2608 103.656 29.6504 102.903 29.6504L102.895 29.6504C102.819 28.9687 102.241 28.4385 101.539 28.4385C100.838 28.4385 100.26 28.9687 100.184 29.6504L100.176 29.6504C99.4229 29.6504 98.8125 30.2608 98.8125 31.0138Z" fill="#FFD0C7"/>
<path id="Union_2" fill-rule="evenodd" clip-rule="evenodd" d="M111.827 42.775C111.827 43.5126 112.185 44.1666 112.737 44.5727C112.709 44.7127 112.695 44.8574 112.695 45.0054C112.695 46.2376 113.694 47.2365 114.926 47.2365C115.439 47.2365 115.912 47.063 116.289 46.7715C116.666 47.063 117.139 47.2365 117.653 47.2365C118.885 47.2365 119.884 46.2376 119.884 45.0054C119.884 44.8573 119.869 44.7126 119.842 44.5726C120.393 44.1664 120.751 43.5125 120.751 42.775C120.751 41.5428 119.752 40.5439 118.52 40.5439L118.507 40.544C118.383 39.4283 117.438 38.5605 116.289 38.5605C115.141 38.5605 114.195 39.4283 114.072 40.544L114.058 40.5439C112.826 40.5439 111.827 41.5428 111.827 42.775Z" fill="#FFD0C7" fill-opacity="0.8"/>
<g id="Group 33835">
<rect id="Rectangle 79" x="21.3936" y="49.4639" width="5.03343" height="33.2751" rx="2.51672" transform="rotate(-0.821385 21.3936 49.4639)" fill="url(#paint2_linear_222_2631)"/>
<path id="Union_3" fill-rule="evenodd" clip-rule="evenodd" d="M33.734 44.9332C34.5369 47.4174 35.0099 50.2355 35.0528 53.2271C35.1981 63.3614 30.3525 71.648 24.2298 71.7358C18.1072 71.8236 13.026 63.6793 12.8807 53.545C12.8378 50.5535 13.2298 47.723 13.9612 45.2168C13.956 36.3457 18.2334 29.1551 23.6182 29.0779C29.003 29.0007 33.4848 36.0656 33.734 44.9332Z" fill="url(#paint3_linear_222_2631)"/>
</g>
<path id="Intersect" fill-rule="evenodd" clip-rule="evenodd" d="M133.982 68.521C133.173 104.821 103.494 133.999 66.9994 133.999C46.2407 133.999 27.687 124.559 15.3975 109.737C44.2571 112.13 79.3665 107.977 106.954 86.5394C116.847 78.8526 125.818 72.9595 133.982 68.521Z" fill="url(#paint4_linear_222_2631)" fill-opacity="0.8"/>
<path id="Intersect_2" fill-rule="evenodd" clip-rule="evenodd" d="M116.385 112.277C104.138 125.629 86.546 134 66.9993 134C30.7344 134 1.19896 105.188 0.0351562 69.2056C14.8416 72.3745 32.2299 79.2184 49.8452 89.876C73.2804 104.055 96.8749 110.542 116.385 112.277Z" fill="url(#paint5_linear_222_2631)"/>
<path id="Intersect_3" fill-rule="evenodd" clip-rule="evenodd" d="M61.5842 133.785C30.2336 131.277 4.96809 107.189 0.651367 76.3828C3.17805 76.665 5.73725 77.2514 8.27027 78.1642C17.19 81.3785 23.7775 87.9174 26.6801 95.3959C28.5033 95.8187 30.3254 96.3544 32.1366 97.0071C49.2846 103.187 60.4971 118.063 61.5842 133.785Z" fill="url(#paint6_linear_222_2631)"/>
<circle id="Ellipse 495" cx="66.9997" cy="66.9997" r="66.4997" stroke="#F1F1F1"/>
<g id="Group 33836">
<rect id="Rectangle 79_2" x="116.051" y="64.4971" width="2.48064" height="16.3991" rx="1.24032" fill="url(#paint7_linear_222_2631)"/>
<path id="Union_4" fill-rule="evenodd" clip-rule="evenodd" d="M122.164 62.3525C122.542 63.5823 122.755 64.9742 122.755 66.4486C122.755 71.4436 120.309 75.4929 117.291 75.4929C114.274 75.4929 111.827 71.4436 111.827 66.4486C111.827 64.974 112.04 63.5818 112.419 62.3519C112.479 57.9806 114.637 54.4678 117.291 54.4678C119.945 54.4678 122.104 57.981 122.164 62.3525Z" fill="url(#paint8_linear_222_2631)"/>
</g>
<g id="Group 33837">
<rect id="Rectangle 79_3" x="109.245" y="74.3037" width="2.16395" height="14.3054" rx="1.08197" fill="url(#paint9_linear_222_2631)"/>
<path id="Union_5" fill-rule="evenodd" clip-rule="evenodd" d="M114.578 72.4314C114.908 73.5042 115.094 74.7186 115.094 76.0049C115.094 80.3622 112.96 83.8945 110.327 83.8945C107.695 83.8945 105.561 80.3622 105.561 76.0049C105.561 74.7187 105.746 73.5043 106.076 72.4315C106.129 68.6182 108.012 65.5537 110.327 65.5537C112.642 65.5537 114.525 68.6181 114.578 72.4314Z" fill="url(#paint10_linear_222_2631)"/>
</g>
<path id="Union_6" fill-rule="evenodd" clip-rule="evenodd" d="M46.2734 108.59C46.2734 109.204 46.5718 109.749 47.0316 110.088C47.0086 110.205 46.9966 110.325 46.9966 110.449C46.9966 111.476 47.829 112.308 48.8558 112.308C49.2836 112.308 49.6777 112.164 49.9919 111.921C50.3061 112.164 50.7001 112.308 51.128 112.308C52.1548 112.308 52.9872 111.476 52.9872 110.449C52.9872 110.325 52.9751 110.205 52.9521 110.088C53.4118 109.749 53.7101 109.204 53.7101 108.59C53.7101 107.563 52.8777 106.73 51.8509 106.73L51.8396 106.731C51.7367 105.801 50.9486 105.078 49.9918 105.078C49.0349 105.078 48.2468 105.801 48.1439 106.731L48.1326 106.73C47.1058 106.73 46.2734 107.563 46.2734 108.59Z" fill="white"/>
<path id="Union_7" fill-rule="evenodd" clip-rule="evenodd" d="M28.4385 87.436C28.4385 87.723 28.5779 87.9776 28.7927 88.1355C28.7818 88.1903 28.7761 88.2471 28.7761 88.3051C28.7761 88.7843 29.1646 89.1728 29.6437 89.1728C29.8434 89.1728 30.0273 89.1053 30.1739 88.992C30.3205 89.1053 30.5044 89.1728 30.7041 89.1728C31.1832 89.1728 31.5717 88.7843 31.5717 88.3051C31.5717 88.247 31.566 88.1901 31.555 88.1352C31.7696 87.9772 31.9088 87.7229 31.9088 87.436C31.9088 86.9568 31.5204 86.5684 31.0412 86.5684L31.036 86.5684C30.9878 86.1349 30.6201 85.7979 30.1738 85.7979C29.7274 85.7979 29.3598 86.1349 29.3115 86.5684L29.3061 86.5684C28.8269 86.5684 28.4385 86.9568 28.4385 87.436Z" fill="white"/>
<path id="Union_8" fill-rule="evenodd" clip-rule="evenodd" d="M108.453 99.487C108.453 99.7739 108.592 100.028 108.807 100.186C108.796 100.241 108.791 100.297 108.791 100.355C108.791 100.834 109.179 101.223 109.658 101.223C109.858 101.223 110.042 101.155 110.188 101.042C110.335 101.155 110.519 101.223 110.718 101.223C111.198 101.223 111.586 100.834 111.586 100.355C111.586 100.297 111.58 100.241 111.57 100.186C111.784 100.028 111.923 99.7739 111.923 99.487C111.923 99.0078 111.535 98.6193 111.056 98.6193L111.051 98.6193C111.002 98.1858 110.635 97.8486 110.188 97.8486C109.742 97.8486 109.374 98.1858 109.326 98.6194L109.321 98.6193C108.842 98.6193 108.453 99.0078 108.453 99.487Z" fill="white"/>
</g>
<defs>
<linearGradient id="paint0_linear_222_2631" x1="18" y1="-16.5" x2="66.9997" y2="133.999" gradientUnits="userSpaceOnUse">
<stop stop-color="#BCF4FF"/>
<stop offset="0.692879" stop-color="#FFF8EF"/>
</linearGradient>
<linearGradient id="paint1_linear_222_2631" x1="77.3585" y1="28.6722" x2="66.9431" y2="106.989" gradientUnits="userSpaceOnUse">
<stop stop-color="white"/>
<stop offset="0.616472" stop-color="white" stop-opacity="0"/>
</linearGradient>
<linearGradient id="paint2_linear_222_2631" x1="23.9103" y1="54.5245" x2="23.9103" y2="82.7389" gradientUnits="userSpaceOnUse">
<stop stop-color="#3B281A"/>
<stop offset="0.882113" stop-color="#AF7E5A"/>
</linearGradient>
<linearGradient id="paint3_linear_222_2631" x1="26.4998" y1="34.4995" x2="24.2298" y2="71.7358" gradientUnits="userSpaceOnUse">
<stop stop-color="#FFEBE7"/>
<stop offset="1" stop-color="#FFA89E"/>
</linearGradient>
<linearGradient id="paint4_linear_222_2631" x1="132.5" y1="71.9995" x2="97.4998" y2="162.5" gradientUnits="userSpaceOnUse">
<stop stop-color="#FFCBBC"/>
<stop offset="0.441911" stop-color="#C3E39A"/>
<stop offset="0.868899" stop-color="#6AB16D"/>
</linearGradient>
<linearGradient id="paint5_linear_222_2631" x1="19.4998" y1="73.5005" x2="120.5" y2="140" gradientUnits="userSpaceOnUse">
<stop offset="0.101969" stop-color="#FFCDCD"/>
<stop offset="0.868899" stop-color="#C4FFA7"/>
</linearGradient>
<linearGradient id="paint6_linear_222_2631" x1="28.5804" y1="85.4834" x2="-1.16258" y2="168.019" gradientUnits="userSpaceOnUse">
<stop stop-color="#FFC1B9"/>
</linearGradient>
<linearGradient id="paint7_linear_222_2631" x1="117.291" y1="66.9911" x2="117.291" y2="80.8961" gradientUnits="userSpaceOnUse">
<stop stop-color="#3B281A"/>
<stop offset="0.882113" stop-color="#AF7E5A"/>
</linearGradient>
<linearGradient id="paint8_linear_222_2631" x1="118.673" y1="57.1598" x2="117.291" y2="75.493" gradientUnits="userSpaceOnUse">
<stop stop-color="#FFEBE7"/>
<stop offset="1" stop-color="#FFA89E"/>
</linearGradient>
<linearGradient id="paint9_linear_222_2631" x1="110.327" y1="76.4794" x2="110.327" y2="88.6092" gradientUnits="userSpaceOnUse">
<stop stop-color="#3B281A"/>
<stop offset="0.882113" stop-color="#AF7E5A"/>
</linearGradient>
<linearGradient id="paint10_linear_222_2631" x1="111.532" y1="67.902" x2="110.327" y2="83.8945" gradientUnits="userSpaceOnUse">
<stop stop-color="#FFEBE7"/>
<stop offset="1" stop-color="#FFA89E"/>
</linearGradient>
</defs>
</svg>
