<svg width="278" height="278" viewBox="0 0 278 278" fill="none" xmlns="http://www.w3.org/2000/svg">
<circle cx="139" cy="139" r="139" fill="url(#paint0_linear_205_1731)"/>
<path fill-rule="evenodd" clip-rule="evenodd" d="M47.5714 177.231C53.8083 177.263 64.395 174.147 64.3901 161C58.7867 161.03 49.6419 162.788 46.6826 168.72C43.6972 162.828 34.5878 161.079 29 161.05C28.9953 173.7 38.7983 177.063 45.0952 177.27V185.762C45.0952 186.446 45.6495 187 46.3333 187C47.0171 187 47.5714 186.446 47.5714 185.762V177.231Z" fill="url(#paint1_linear_205_1731)"/>
<path fill-rule="evenodd" clip-rule="evenodd" d="M64.9209 188.796C67.9169 188.812 73.0022 187.315 72.9999 181C70.3082 181.014 65.9155 181.859 64.4939 184.708C63.0598 181.878 58.6841 181.038 56 181.024C55.9977 187.101 60.7067 188.716 63.7315 188.815V192.895C63.7315 193.223 63.9978 193.489 64.3262 193.489C64.6547 193.489 64.9209 193.223 64.9209 192.895V188.796Z" fill="url(#paint2_linear_205_1731)"/>
<circle cx="138.882" cy="138.882" r="83.0789" transform="rotate(10.5468 138.882 138.882)" fill="url(#paint3_linear_205_1731)" fill-opacity="0.6"/>
<path fill-rule="evenodd" clip-rule="evenodd" d="M37.0664 233.502C27.0069 222.657 18.657 210.203 12.4453 196.57C64.099 208.388 134.602 216.21 188.061 200.976C220.484 191.737 247.149 187.861 269.374 187.313C256.359 222.419 229.572 250.837 195.573 266.004L37.0664 233.502Z" fill="url(#paint4_linear_205_1731)" fill-opacity="0.7"/>
<path fill-rule="evenodd" clip-rule="evenodd" d="M251.184 221.087C225.892 255.594 185.063 278 139 278C74.1311 278 19.6406 233.564 4.30762 173.47C25.5582 177.989 48.0228 184.95 71.2021 194.977C137.598 223.697 199.901 227.449 251.184 221.087Z" fill="url(#paint5_linear_205_1731)"/>
<circle cx="242" cy="173" r="6" fill="#A7D9AF"/>
<circle cx="258" cy="148" r="3" fill="#A7D9AF"/>
<circle cx="26" cy="136" r="3" fill="#A7D9AF"/>
<circle cx="139" cy="139" r="138.5" stroke="#F1F1F1"/>
<defs>
<linearGradient id="paint0_linear_205_1731" x1="34.5" y1="-10" x2="139" y2="278" gradientUnits="userSpaceOnUse">
<stop stop-color="#99EEFF"/>
<stop offset="0.562411" stop-color="#EAFCFF"/>
</linearGradient>
<linearGradient id="paint1_linear_205_1731" x1="42.619" y1="157.905" x2="46.3333" y2="185.328" gradientUnits="userSpaceOnUse">
<stop stop-color="#FAFAD8"/>
<stop offset="0.465941" stop-color="#66A776"/>
<stop offset="1" stop-color="#417E59"/>
</linearGradient>
<linearGradient id="paint2_linear_205_1731" x1="62.542" y1="179.513" x2="64.3262" y2="192.686" gradientUnits="userSpaceOnUse">
<stop stop-color="#FAFAD8"/>
<stop offset="0.465941" stop-color="#66A776"/>
<stop offset="1" stop-color="#417E59"/>
</linearGradient>
<linearGradient id="paint3_linear_205_1731" x1="160.49" y1="59.4832" x2="138.882" y2="221.961" gradientUnits="userSpaceOnUse">
<stop stop-color="white"/>
<stop offset="0.616472" stop-color="white" stop-opacity="0"/>
</linearGradient>
<linearGradient id="paint4_linear_205_1731" x1="177.193" y1="166.279" x2="158.311" y2="258.363" gradientUnits="userSpaceOnUse">
<stop stop-color="#A6E1A9"/>
<stop offset="0.868899" stop-color="#6AB16D"/>
</linearGradient>
<linearGradient id="paint5_linear_205_1731" x1="82.1435" y1="134.605" x2="111.915" y2="301.978" gradientUnits="userSpaceOnUse">
<stop stop-color="#A6E1A9"/>
<stop offset="0.868899" stop-color="#6AB16D"/>
</linearGradient>
</defs>
</svg>
