<svg width="278" height="278" viewBox="0 0 278 278" fill="none" xmlns="http://www.w3.org/2000/svg">
<circle cx="139" cy="139" r="139" fill="url(#paint0_linear_279_3808)"/>
<circle cx="138.883" cy="138.883" r="83.0789" transform="rotate(10.5468 138.883 138.883)" fill="url(#paint1_linear_279_3808)" fill-opacity="0.6"/>
<path fill-rule="evenodd" clip-rule="evenodd" d="M205 64.3423C205 65.2775 205.454 66.1067 206.153 66.6216C206.118 66.7992 206.1 66.9828 206.1 67.1706C206.1 68.7328 207.367 69.9991 208.929 69.9991C209.579 69.9991 210.179 69.7794 210.657 69.41C211.135 69.7794 211.734 69.9991 212.385 69.9991C213.947 69.9991 215.214 68.7328 215.214 67.1706C215.214 66.9828 215.195 66.7992 215.16 66.6216C215.86 66.1067 216.314 65.2775 216.314 64.3423C216.314 62.7801 215.047 61.5137 213.485 61.5137L213.468 61.5138C213.312 60.0995 212.113 58.9995 210.657 58.9995C209.201 58.9995 208.002 60.0995 207.846 61.5138L207.829 61.5137C206.266 61.5137 205 62.7801 205 64.3423Z" fill="#FFD0C7"/>
<path fill-rule="evenodd" clip-rule="evenodd" d="M232.001 88.7425C232.001 90.2731 232.744 91.6302 233.889 92.4728C233.832 92.763 233.802 93.063 233.802 93.3699C233.802 95.9262 235.874 97.9984 238.431 97.9984C239.496 97.9984 240.477 97.6387 241.259 97.0341C242.041 97.6387 243.022 97.9984 244.087 97.9984C246.644 97.9984 248.716 95.9262 248.716 93.3699C248.716 93.0625 248.686 92.7621 248.629 92.4715C249.773 91.6288 250.515 90.2723 250.515 88.7425C250.515 86.1862 248.443 84.1139 245.886 84.1139L245.859 84.114C245.604 81.7994 243.642 79.9991 241.259 79.9991C238.876 79.9991 236.914 81.7994 236.659 84.114L236.63 84.1139C234.073 84.1139 232.001 86.1862 232.001 88.7425Z" fill="#FFD0C7" fill-opacity="0.8"/>
<rect x="44.3838" y="102.619" width="10.4425" height="69.0336" rx="5.22127" transform="rotate(-0.821385 44.3838 102.619)" fill="url(#paint2_linear_279_3808)"/>
<path fill-rule="evenodd" clip-rule="evenodd" d="M69.9865 93.2253C71.6513 98.3778 72.6319 104.223 72.7209 110.427C73.0223 131.452 62.9695 148.644 50.2673 148.826C37.565 149.008 27.0235 132.111 26.722 111.086C26.633 104.878 27.4468 99.004 28.9651 93.8033C28.9561 75.4014 37.8295 60.4863 48.9999 60.3261C60.1725 60.1659 69.4711 74.8259 69.9865 93.2253Z" fill="url(#paint3_linear_279_3808)"/>
<path fill-rule="evenodd" clip-rule="evenodd" d="M277.964 142.156C276.287 217.466 214.712 278 138.999 278C95.9327 278 57.4405 258.414 31.9443 227.664C91.8174 232.629 164.656 224.012 221.89 179.538C242.413 163.59 261.027 151.364 277.964 142.156Z" fill="url(#paint4_linear_279_3808)" fill-opacity="0.8"/>
<path fill-rule="evenodd" clip-rule="evenodd" d="M241.458 232.934C216.048 260.634 179.552 278 138.999 278C63.763 278 2.48772 218.225 0.0732423 143.576C30.7913 150.15 66.8656 164.349 103.411 186.459C152.03 215.875 200.98 229.333 241.458 232.934Z" fill="url(#paint5_linear_279_3808)"/>
<path fill-rule="evenodd" clip-rule="evenodd" d="M127.765 277.555C62.724 272.353 10.3072 222.378 1.35156 158.467C6.59346 159.052 11.9028 160.269 17.1579 162.162C35.6629 168.831 49.3296 182.396 55.3514 197.912C59.1343 198.789 62.9146 199.9 66.6723 201.254C102.248 214.075 125.51 244.938 127.765 277.555Z" fill="url(#paint6_linear_279_3808)"/>
<circle cx="139" cy="139" r="138.5" stroke="#F1F1F1"/>
<rect x="240.763" y="133.808" width="5.14643" height="34.0221" rx="2.57321" fill="url(#paint7_linear_279_3808)"/>
<path fill-rule="evenodd" clip-rule="evenodd" d="M253.446 129.357C254.231 131.909 254.673 134.797 254.673 137.857C254.673 148.219 249.598 156.62 243.337 156.62C237.076 156.62 232.001 148.219 232.001 137.857C232.001 134.798 232.443 131.91 233.227 129.359C233.352 120.289 237.83 113.001 243.337 113.001C248.843 113.001 253.321 120.288 253.446 129.357Z" fill="url(#paint8_linear_279_3808)"/>
<rect x="226.644" y="154.153" width="4.4894" height="29.6786" rx="2.2447" fill="url(#paint9_linear_279_3808)"/>
<path fill-rule="evenodd" clip-rule="evenodd" d="M237.707 150.269C238.391 152.494 238.777 155.014 238.777 157.682C238.777 166.722 234.349 174.05 228.888 174.05C223.426 174.05 218.999 166.722 218.999 157.682C218.999 155.014 219.385 152.495 220.069 150.269C220.178 142.358 224.085 136 228.888 136C233.691 136 237.597 142.358 237.707 150.269Z" fill="url(#paint10_linear_279_3808)"/>
<path fill-rule="evenodd" clip-rule="evenodd" d="M96.001 225.284C96.001 226.559 96.6196 227.689 97.5731 228.392C97.5253 228.634 97.5002 228.885 97.5002 229.141C97.5002 231.272 99.2271 232.999 101.357 232.999C102.245 232.999 103.063 232.699 103.715 232.195C104.366 232.699 105.184 232.999 106.072 232.999C108.202 232.999 109.929 231.272 109.929 229.141C109.929 228.885 109.904 228.635 109.856 228.393C110.811 227.691 111.43 226.56 111.43 225.284C111.43 223.154 109.703 221.427 107.573 221.427L107.549 221.427C107.336 219.498 105.701 217.999 103.716 217.999C101.73 217.999 100.095 219.498 99.8821 221.427L99.8581 221.427C97.7279 221.427 96.001 223.154 96.001 225.284Z" fill="white"/>
<path fill-rule="evenodd" clip-rule="evenodd" d="M59 181.398C59 181.993 59.2894 182.522 59.7353 182.849C59.7128 182.963 59.701 183.08 59.701 183.201C59.701 184.195 60.5069 185.001 61.501 185.001C61.9149 185.001 62.2961 184.861 62.6001 184.626C62.9042 184.861 63.2854 185.001 63.6992 185.001C64.6933 185.001 65.4992 184.195 65.4992 183.201C65.4992 183.08 65.4874 182.963 65.4649 182.849C65.9108 182.522 66.2002 181.993 66.2002 181.398C66.2002 180.404 65.3943 179.598 64.4002 179.598L64.39 179.598C64.2898 178.698 63.5271 177.999 62.6011 177.999C61.6751 177.999 60.9124 178.698 60.8123 179.598L60.8 179.598C59.8059 179.598 59 180.404 59 181.398Z" fill="white"/>
<path fill-rule="evenodd" clip-rule="evenodd" d="M225 206.399C225 206.994 225.289 207.522 225.735 207.85C225.713 207.963 225.701 208.08 225.701 208.2C225.701 209.194 226.507 210 227.501 210C227.915 210 228.296 209.86 228.6 209.625C228.904 209.86 229.285 210 229.699 210C230.693 210 231.499 209.194 231.499 208.2C231.499 208.08 231.488 207.963 231.465 207.85C231.911 207.522 232.2 206.994 232.2 206.399C232.2 205.405 231.394 204.599 230.4 204.599L230.388 204.599C230.288 203.699 229.525 203 228.599 203C227.673 203 226.91 203.699 226.81 204.599L226.8 204.599C225.806 204.599 225 205.405 225 206.399Z" fill="white"/>
<defs>
<linearGradient id="paint0_linear_279_3808" x1="37.3434" y1="-34.2315" x2="139" y2="278" gradientUnits="userSpaceOnUse">
<stop stop-color="#BCF4FF"/>
<stop offset="0.692879" stop-color="#FFF8EF"/>
</linearGradient>
<linearGradient id="paint1_linear_279_3808" x1="160.491" y1="59.4844" x2="138.883" y2="221.962" gradientUnits="userSpaceOnUse">
<stop stop-color="white"/>
<stop offset="0.616472" stop-color="white" stop-opacity="0"/>
</linearGradient>
<linearGradient id="paint2_linear_279_3808" x1="49.6051" y1="113.118" x2="49.6051" y2="171.653" gradientUnits="userSpaceOnUse">
<stop stop-color="#3B281A"/>
<stop offset="0.882113" stop-color="#AF7E5A"/>
</linearGradient>
<linearGradient id="paint3_linear_279_3808" x1="54.9765" y1="71.5741" x2="50.2673" y2="148.826" gradientUnits="userSpaceOnUse">
<stop stop-color="#FFEBE7"/>
<stop offset="1" stop-color="#FFA89E"/>
</linearGradient>
<linearGradient id="paint4_linear_279_3808" x1="274.889" y1="149.372" x2="202.276" y2="337.127" gradientUnits="userSpaceOnUse">
<stop stop-color="#FFCBBC"/>
<stop offset="0.441911" stop-color="#C3E39A"/>
<stop offset="0.868899" stop-color="#6AB16D"/>
</linearGradient>
<linearGradient id="paint5_linear_279_3808" x1="40.4552" y1="152.486" x2="249.993" y2="290.449" gradientUnits="userSpaceOnUse">
<stop offset="0.101969" stop-color="#FFCDCD"/>
<stop offset="0.868899" stop-color="#C4FFA7"/>
</linearGradient>
<linearGradient id="paint6_linear_279_3808" x1="59.2943" y1="177.347" x2="-2.41136" y2="348.579" gradientUnits="userSpaceOnUse">
<stop stop-color="#FFC1B9"/>
</linearGradient>
<linearGradient id="paint7_linear_279_3808" x1="243.336" y1="138.982" x2="243.336" y2="167.83" gradientUnits="userSpaceOnUse">
<stop stop-color="#3B281A"/>
<stop offset="0.882113" stop-color="#AF7E5A"/>
</linearGradient>
<linearGradient id="paint8_linear_279_3808" x1="246.203" y1="118.586" x2="243.337" y2="156.62" gradientUnits="userSpaceOnUse">
<stop stop-color="#FFEBE7"/>
<stop offset="1" stop-color="#FFA89E"/>
</linearGradient>
<linearGradient id="paint9_linear_279_3808" x1="228.888" y1="158.667" x2="228.888" y2="183.832" gradientUnits="userSpaceOnUse">
<stop stop-color="#3B281A"/>
<stop offset="0.882113" stop-color="#AF7E5A"/>
</linearGradient>
<linearGradient id="paint10_linear_279_3808" x1="231.388" y1="140.872" x2="228.888" y2="174.05" gradientUnits="userSpaceOnUse">
<stop stop-color="#FFEBE7"/>
<stop offset="1" stop-color="#FFA89E"/>
</linearGradient>
</defs>
</svg>
