<svg width="278" height="278" viewBox="0 0 278 278" fill="none" xmlns="http://www.w3.org/2000/svg">
<circle cx="139" cy="139" r="139" fill="url(#paint0_linear_205_1837)"/>
<circle cx="138.882" cy="138.882" r="83.0789" transform="rotate(10.5468 138.882 138.882)" fill="url(#paint1_linear_205_1837)" fill-opacity="0.6"/>
<path fill-rule="evenodd" clip-rule="evenodd" d="M205 64.3428C205 65.278 205.454 66.1072 206.153 66.6221C206.118 66.7998 206.1 66.9835 206.1 67.1714C206.1 68.7336 207.366 70 208.929 70C209.58 70 210.179 69.7801 210.657 69.4105C211.135 69.7801 211.735 70 212.386 70C213.948 70 215.214 68.7336 215.214 67.1714C215.214 66.9835 215.196 66.7998 215.161 66.6221C215.86 66.1071 216.314 65.278 216.314 64.3428C216.314 62.7806 215.048 61.5142 213.486 61.5142L213.468 61.5143C213.312 60.1 212.113 59 210.657 59C209.201 59 208.002 60.1 207.846 61.5143L207.829 61.5142C206.266 61.5142 205 62.7806 205 64.3428Z" fill="#FFA17B" fill-opacity="0.9"/>
<path fill-rule="evenodd" clip-rule="evenodd" d="M232 88.7426C232 90.273 232.743 91.6299 233.887 92.4726C233.83 92.7633 233.8 93.0638 233.8 93.3713C233.8 95.9276 235.872 97.9998 238.429 97.9998C239.494 97.9998 240.475 97.64 241.257 97.0353C242.039 97.64 243.021 97.9998 244.086 97.9998C246.642 97.9998 248.714 95.9276 248.714 93.3713C248.714 93.0637 248.684 92.7631 248.627 92.4723C249.771 91.6296 250.514 90.2729 250.514 88.7426C250.514 86.1864 248.442 84.1141 245.885 84.1141L245.858 84.1142C245.602 81.8 243.64 80 241.257 80C238.875 80 236.913 81.8 236.657 84.1142L236.629 84.1141C234.072 84.1141 232 86.1864 232 88.7426Z" fill="#FFA17B" fill-opacity="0.7"/>
<rect x="44.3838" y="102.622" width="10.4425" height="69.0336" rx="5.22127" transform="rotate(-0.821385 44.3838 102.622)" fill="url(#paint2_linear_205_1837)"/>
<path fill-rule="evenodd" clip-rule="evenodd" d="M69.9861 93.2238C71.6517 98.3774 72.6329 104.224 72.7219 110.43C73.0233 131.455 62.9705 148.646 50.2682 148.829C37.566 149.011 27.0244 132.114 26.723 111.089C26.634 104.883 27.4474 99.01 28.9648 93.8104C28.9547 75.407 37.8285 60.4901 48.9997 60.3299C60.1711 60.1698 69.4691 74.8269 69.9861 93.2238Z" fill="url(#paint3_linear_205_1837)"/>
<path fill-rule="evenodd" clip-rule="evenodd" d="M277.966 142.156C276.288 217.466 214.713 278 139.001 278C95.9338 278 57.4415 258.414 31.9453 227.663C91.8186 232.628 164.658 224.012 221.893 179.537C242.415 163.59 261.028 151.364 277.966 142.156Z" fill="url(#paint4_linear_205_1837)" fill-opacity="0.8"/>
<path fill-rule="evenodd" clip-rule="evenodd" d="M241.458 232.934C216.048 260.634 179.552 278 139 278C63.7642 278 2.48914 218.226 0.0742188 143.577C30.7922 150.151 66.8665 164.35 103.412 186.46C152.031 215.875 200.981 229.334 241.458 232.934Z" fill="url(#paint5_linear_205_1837)"/>
<path fill-rule="evenodd" clip-rule="evenodd" d="M127.765 277.552C62.7246 272.35 10.3087 222.376 1.35254 158.466C6.59418 159.051 11.9033 160.268 17.1581 162.161C35.6632 168.83 49.3299 182.396 55.3517 197.911C59.1343 198.788 62.9144 199.9 66.672 201.254C102.247 214.074 125.509 244.936 127.765 277.552Z" fill="url(#paint6_linear_205_1837)"/>
<circle cx="139" cy="139" r="138.5" stroke="#F1F1F1"/>
<rect x="240.763" y="133.808" width="5.14643" height="34.0221" rx="2.57321" fill="url(#paint7_linear_205_1837)"/>
<path fill-rule="evenodd" clip-rule="evenodd" d="M253.445 129.358C254.23 131.909 254.672 134.797 254.672 137.856C254.672 148.219 249.597 156.62 243.336 156.62C237.075 156.62 232 148.219 232 137.856C232 134.797 232.442 131.909 233.227 129.358C233.351 120.289 237.83 113 243.336 113C248.842 113 253.32 120.288 253.445 129.358Z" fill="url(#paint8_linear_205_1837)"/>
<rect x="226.645" y="154.152" width="4.4894" height="29.6786" rx="2.2447" fill="url(#paint9_linear_205_1837)"/>
<path fill-rule="evenodd" clip-rule="evenodd" d="M237.708 150.27C238.392 152.495 238.778 155.015 238.778 157.683C238.778 166.723 234.35 174.051 228.889 174.051C223.427 174.051 219 166.723 219 157.683C219 155.014 219.386 152.495 220.07 150.269C220.179 142.358 224.086 136 228.889 136C233.692 136 237.599 142.358 237.708 150.27Z" fill="url(#paint10_linear_205_1837)"/>
<path fill-rule="evenodd" clip-rule="evenodd" d="M96 225.286C96 226.561 96.6189 227.692 97.5728 228.394C97.5251 228.636 97.5001 228.886 97.5001 229.143C97.5001 231.273 99.227 233 101.357 233C102.245 233 103.063 232.7 103.714 232.196C104.366 232.7 105.184 233 106.071 233C108.202 233 109.929 231.273 109.929 229.143C109.929 228.886 109.904 228.636 109.856 228.394C110.81 227.691 111.428 226.561 111.428 225.286C111.428 223.155 109.701 221.428 107.571 221.428L107.548 221.428C107.335 219.5 105.7 218 103.714 218C101.729 218 100.094 219.5 99.8808 221.428L99.8571 221.428C97.7269 221.428 96 223.155 96 225.286Z" fill="white"/>
<path fill-rule="evenodd" clip-rule="evenodd" d="M59 181.4C59 181.995 59.2889 182.523 59.734 182.85C59.7118 182.964 59.7001 183.08 59.7001 183.2C59.7001 184.194 60.506 185 61.5001 185C61.9144 185 62.2959 184.86 62.6001 184.625C62.9043 184.86 63.2858 185 63.7001 185C64.6942 185 65.5001 184.194 65.5001 183.2C65.5001 183.08 65.4884 182.963 65.4661 182.85C65.9112 182.523 66.2 181.995 66.2 181.4C66.2 180.406 65.3941 179.6 64.4 179.6L64.389 179.6C64.2895 178.7 63.5265 178 62.6 178C61.6736 178 60.9106 178.7 60.811 179.6L60.8 179.6C59.8059 179.6 59 180.406 59 181.4Z" fill="white"/>
<path fill-rule="evenodd" clip-rule="evenodd" d="M225 206.4C225 206.995 225.289 207.523 225.734 207.85C225.712 207.964 225.7 208.08 225.7 208.2C225.7 209.194 226.506 210 227.5 210C227.914 210 228.296 209.86 228.6 209.625C228.904 209.86 229.286 210 229.7 210C230.694 210 231.5 209.194 231.5 208.2C231.5 208.08 231.488 207.963 231.466 207.85C231.911 207.523 232.2 206.995 232.2 206.4C232.2 205.406 231.394 204.6 230.4 204.6L230.389 204.6C230.29 203.7 229.527 203 228.6 203C227.674 203 226.911 203.7 226.811 204.6L226.8 204.6C225.806 204.6 225 205.406 225 206.4Z" fill="white"/>
<defs>
<linearGradient id="paint0_linear_205_1837" x1="34.5" y1="-10" x2="139" y2="278" gradientUnits="userSpaceOnUse">
<stop stop-color="#99EEFF"/>
<stop offset="0.562411" stop-color="#EAFCFF"/>
</linearGradient>
<linearGradient id="paint1_linear_205_1837" x1="160.49" y1="59.4832" x2="138.882" y2="221.961" gradientUnits="userSpaceOnUse">
<stop stop-color="white"/>
<stop offset="0.616472" stop-color="white" stop-opacity="0"/>
</linearGradient>
<linearGradient id="paint2_linear_205_1837" x1="49.6051" y1="113.121" x2="49.6051" y2="171.656" gradientUnits="userSpaceOnUse">
<stop stop-color="#3B281A"/>
<stop offset="0.882113" stop-color="#AF7E5A"/>
</linearGradient>
<linearGradient id="paint3_linear_205_1837" x1="48.9994" y1="60.3299" x2="50.2682" y2="148.828" gradientUnits="userSpaceOnUse">
<stop stop-color="#9CE39F"/>
<stop offset="1" stop-color="#69B16D"/>
</linearGradient>
<linearGradient id="paint4_linear_205_1837" x1="206.98" y1="111.121" x2="187.976" y2="307.202" gradientUnits="userSpaceOnUse">
<stop offset="0.101969" stop-color="#A6E1A9"/>
<stop offset="0.868899" stop-color="#6AB16D"/>
</linearGradient>
<linearGradient id="paint5_linear_205_1837" x1="114.176" y1="118.446" x2="133.18" y2="314.527" gradientUnits="userSpaceOnUse">
<stop offset="0.101969" stop-color="#A6E1A9"/>
<stop offset="0.868899" stop-color="#6AB16D"/>
</linearGradient>
<linearGradient id="paint6_linear_205_1837" x1="59.2946" y1="177.346" x2="-2.4102" y2="348.575" gradientUnits="userSpaceOnUse">
<stop stop-color="#9CE39F"/>
<stop offset="0.763867" stop-color="#54B059"/>
</linearGradient>
<linearGradient id="paint7_linear_205_1837" x1="243.336" y1="138.983" x2="243.336" y2="167.83" gradientUnits="userSpaceOnUse">
<stop stop-color="#3B281A"/>
<stop offset="0.882113" stop-color="#AF7E5A"/>
</linearGradient>
<linearGradient id="paint8_linear_205_1837" x1="243.336" y1="113" x2="243.336" y2="156.62" gradientUnits="userSpaceOnUse">
<stop stop-color="#9CE39F"/>
<stop offset="1" stop-color="#69B16D"/>
</linearGradient>
<linearGradient id="paint9_linear_205_1837" x1="228.889" y1="158.665" x2="228.889" y2="183.83" gradientUnits="userSpaceOnUse">
<stop stop-color="#3B281A"/>
<stop offset="0.882113" stop-color="#AF7E5A"/>
</linearGradient>
<linearGradient id="paint10_linear_205_1837" x1="228.889" y1="136" x2="228.889" y2="174.051" gradientUnits="userSpaceOnUse">
<stop stop-color="#9CE39F"/>
<stop offset="1" stop-color="#69B16D"/>
</linearGradient>
</defs>
</svg>
