<svg width="178" height="89" viewBox="0 0 178 89" fill="none" xmlns="http://www.w3.org/2000/svg">
<g id="Group 19">
<g id="Group">
<path id="Union" fill-rule="evenodd" clip-rule="evenodd" d="M125.614 0V18.6206H117.568V18.4114C117.568 12.8671 116.294 9.88568 113.69 6.59045C111.085 3.29523 107.148 1.62146 101.823 1.62146H101.128C95.8026 1.62146 91.8663 3.29523 89.2614 6.59045C87.1747 9.23015 85.9424 11.6685 85.5347 15.3842C82.9842 16.6667 81.2728 19.1242 81.2728 21.9682V53.4559H89.6085V40.5383C92.211 43.5556 96.034 45.087 101.128 45.087H101.823C107.148 45.087 111.085 43.4133 113.69 40.1181C116.294 36.8228 117.568 32.3769 117.568 26.8325V26.1526H125.614V40.411C125.575 40.7827 125.556 41.1558 125.556 41.5304C125.556 43.3088 126.019 44.9826 126.887 46.4994C127.548 47.5534 128.34 48.4422 129.297 49.1816C130.857 50.4089 132.329 50.8406 132.329 50.8406L132.33 50.8405C133.652 51.3067 135.13 51.5207 136.786 51.5207C137.538 51.5207 138.291 51.4684 139.159 51.3115C144.311 50.6838 148.19 48.8531 150.91 45.7671C153.573 42.6811 155.367 38.8628 156.236 34.26C158.609 34.8877 160.288 35.8815 161.33 37.2937C162.372 38.6536 162.893 40.2751 162.893 42.0535C162.893 43.5703 162.603 45.0872 162.024 46.6563C161.446 48.2255 160.751 49.5331 159.998 50.6838C159.246 51.8345 158.609 52.5145 158.146 52.776H167.987C168.855 51.2069 169.55 49.4285 170.071 47.5455C170.592 45.6625 170.823 43.7795 170.823 41.8965C170.823 38.2352 169.723 35.0969 167.524 32.4293C165.903 30.4417 163.529 28.9772 160.461 27.9834C158.32 27.3034 156.988 25.4204 157.104 23.3805L157.278 19.8238H148.942L148.537 26.5188C146.569 26.6234 144.601 26.7281 142.748 26.9373C139.189 27.3826 136.199 28.2493 133.681 29.6258L133.95 0H125.614ZM109.232 26.8325C109.232 30.7554 108.653 33.6322 107.438 35.4629C106.222 37.2936 104.37 38.1828 101.881 38.1828H101.186C98.6969 38.1828 96.8446 37.2936 95.629 35.4629C94.4133 33.6322 93.8345 30.7554 93.8345 26.8325V18.4114C93.8345 14.4885 94.4133 13.0763 95.629 11.2456C96.8446 9.41493 98.6969 8.52574 101.186 8.52574H101.881C104.37 8.52574 106.222 9.41493 107.438 11.2456C108.653 13.0763 109.232 14.4362 109.232 18.4114V26.8325ZM21.1286 15.5347C24.1387 15.1686 26.8014 14.9593 29.2327 14.9593C31.7797 14.9593 34.0951 15.1686 36.1791 15.5347C37.1836 13.7646 38.0139 12.1521 38.7454 10.7313C38.857 10.5147 38.9662 10.3025 39.0734 10.095H6.02016V3.19068H47.8721C49.2035 3.19068 50.1876 4.3937 49.7824 5.59672C48.1037 10.1996 46.1355 14.384 43.878 18.0977C44.1909 18.3239 44.4888 18.5229 44.7625 18.7058C45.1247 18.9478 45.4446 19.1615 45.7009 19.3724C46.1494 19.6544 46.5637 19.9554 46.7149 20.1375C46.8886 21.3406 49.6671 37.9736 66.6858 36.7706C66.6858 36.7706 70.5642 20.8698 50.4775 19.9283C54.7032 23.0143 59.0447 29.0294 59.0447 29.0294C54.2402 24.5312 47.9305 19.876 47.9305 19.876L46.5991 18.8822C47.2359 18.4638 48.0463 18.0453 48.7988 17.6792C51.2301 16.5808 53.8928 16.0577 56.845 16.0577H57.5397C60.5498 16.0577 63.2126 16.5808 65.5859 17.6792C67.9593 18.7776 69.8116 20.2945 71.2009 22.2297C72.5323 24.165 73.2269 26.4142 73.2269 28.9771V32.2723C73.2269 34.783 72.5902 36.9798 71.2009 38.9674C69.8695 40.955 68.0172 42.4718 65.5859 43.5703C63.1547 44.6687 60.4919 45.1917 57.5397 45.1917H56.845C53.8928 45.1917 51.1722 44.6687 48.7988 43.5703C46.4255 42.4718 44.5731 40.955 43.1838 38.9151C41.8524 36.9798 41.1578 34.7307 41.1578 32.22V28.9771C41.1578 28.6365 41.169 28.3014 41.1918 27.9719C41.1612 27.8507 41.1303 27.7323 41.0994 27.6172C40.6942 25.9434 40.1153 25.0542 39.768 24.6358C39.7101 24.5835 39.6667 24.5312 39.6233 24.4789C39.5799 24.4266 39.5365 24.3743 39.4786 24.322C33.9794 30.7555 27.3224 34.4169 19.4498 35.3584C18.4079 35.5153 17.4238 35.5676 16.4397 35.5676C14.0664 35.5676 11.9246 35.1491 10.1301 34.3646C8.33563 33.58 6.94635 32.5339 5.96228 31.1739C4.97821 29.814 4.51511 28.4018 4.51511 26.8849C4.51511 25.2112 5.15187 23.5897 6.3096 22.0205C7.46733 20.4514 9.3197 19.0914 11.8088 17.9407C14.2979 16.7377 17.4238 15.9531 21.1286 15.5347ZM16.6713 28.7156L18.35 28.611C23.2125 27.9833 27.4961 25.7865 31.1429 21.9682L29.2906 21.9159C27.4382 21.9159 25.1227 22.1251 22.2284 22.439C19.2183 22.7528 16.9028 23.3805 15.282 24.2174C13.6612 25.1065 12.8508 25.9434 12.8508 26.8326C12.8508 27.408 13.1981 27.8264 13.8348 28.1925C14.5295 28.5587 15.4557 28.7156 16.6713 28.7156ZM32.4165 35.3583V41.8442C32.4165 44.3025 34.6162 46.3424 37.3947 46.3947H56.4394L56.4012 48.6403L56.4398 48.6438C56.4228 48.7858 56.4075 48.9264 56.3939 49.0658L56.3293 52.8614C56.3336 52.9797 56.3381 53.0965 56.3425 53.2118C56.3629 53.7453 56.382 54.2455 56.382 54.7112C56.382 57.5357 56.845 59.3664 57.7712 60.2556C58.4659 60.8832 59.8551 61.4063 61.8812 61.7724C63.9072 62.1386 66.3963 62.2955 69.2907 62.2955C72.6481 62.2955 76.2949 62.0863 80.2312 61.6155C84.1096 61.1448 87.8722 60.4648 91.3454 59.6279V66.7937C87.8144 67.5783 84.1675 68.1537 80.4049 68.6244C76.6423 69.0952 72.9954 69.3044 69.4643 69.3044C65.2965 69.3044 61.6496 68.9382 58.5238 68.2583C55.3979 67.5783 53.1403 66.4799 51.6353 65.0154C50.3039 63.6554 49.3777 62.1386 48.7988 60.4125C48.2778 58.6864 47.9884 56.7511 47.9884 54.5543C47.9884 54.1298 47.9954 53.6767 48.0111 53.1944H0V46.2901H24.0808V35.3583H32.4165ZM177.943 59.1047H121.562V66.009H177.943V59.1047ZM134.176 44.3898C133.358 44.8484 132.384 45.395 131.75 45.6625C131.518 45.7671 131.46 46.0287 131.518 46.1333C131.634 46.2379 131.75 46.3425 131.923 46.3425C131.981 46.3425 132.039 46.3425 132.097 46.2902C133.11 45.8784 134.876 44.8662 135.612 44.4441L135.612 44.4439L135.613 44.4434C135.683 44.4033 135.744 44.3686 135.793 44.3402C135.818 44.3261 135.84 44.3135 135.86 44.3026C136.439 44.5118 137.133 44.6164 138.001 44.5118C143.327 43.8318 146.684 40.1705 147.958 33.5277C146.163 33.6323 144.832 33.7369 143.906 33.8415C141.764 34.1031 139.912 34.6261 138.407 35.463C136.902 36.2999 135.744 37.2414 134.991 38.3398C134.239 39.4382 133.834 40.4843 133.834 41.4781C133.834 42.1581 134.007 42.6811 134.297 43.1519C135.339 42.6288 136.439 41.9489 137.596 41.1643C137.596 41.1643 141.59 38.6013 143.501 36.8753C143.501 36.8753 141.359 39.752 137.944 42.0012L134.991 43.9364C134.757 44.0633 134.477 44.2206 134.176 44.3898Z" fill="url(#paint0_linear_385_3505)"/>
</g>
<g id="Group_2">
<path id="Vector" d="M94.8892 76.4397V86.5913C94.8892 87.0501 94.7745 87.5089 94.6026 87.853C94.4306 88.1972 94.144 88.4839 93.8001 88.7133C93.4562 88.8854 93.055 89.0001 92.5965 89.0001C92.5391 89.0001 92.4818 89.0001 92.3672 89.0001V88.1972C92.4245 88.1972 92.4818 88.1972 92.5965 88.1972C92.883 88.1972 93.1696 88.1398 93.3989 88.0251C93.6282 87.9104 93.8001 87.7383 93.9148 87.4516C94.0294 87.2222 94.0867 86.9354 94.0867 86.5913V76.4397H94.8892ZM94.144 74.7765C94.0867 74.7191 93.9721 74.6044 93.9148 74.547C93.8575 74.4323 93.8575 74.3176 93.8575 74.2029C93.8575 74.0882 93.8575 73.9735 93.9721 73.9162C93.9721 73.8015 94.0867 73.7441 94.144 73.6867C94.2587 73.6294 94.3733 73.6294 94.488 73.6294C94.6026 73.6294 94.7172 73.6294 94.8319 73.6867C94.9465 73.7441 95.0038 73.8015 95.0611 73.9162C95.1185 74.0309 95.1758 74.1456 95.1758 74.2603C95.1758 74.375 95.1185 74.4897 95.0611 74.547C95.0038 74.6044 94.9465 74.7191 94.8319 74.7765C94.7172 74.8338 94.6026 74.8338 94.488 74.8338C94.3733 74.8338 94.2587 74.8338 94.144 74.7765Z" fill="#323232"/>
<path id="Vector_2" d="M98.0985 85.1574C97.5253 84.7559 97.0095 84.1824 96.7229 83.4368C96.379 82.7485 96.207 81.9456 96.207 81.0279C96.207 80.1103 96.379 79.3073 96.7229 78.5617C97.0095 77.8735 97.5253 77.2999 98.0985 76.8985C98.6717 76.497 99.3595 76.2676 100.105 76.2676C100.85 76.2676 101.538 76.497 102.111 76.8985C102.684 77.2999 103.257 77.8735 103.601 78.6191C103.945 79.3647 104.117 80.1676 104.117 81.0853C104.117 82.0029 103.945 82.8059 103.601 83.4941C103.257 84.1824 102.741 84.7559 102.168 85.1574C101.595 85.5588 100.907 85.7882 100.162 85.7882C99.4168 85.7882 98.729 85.5588 98.0985 85.1574ZM101.767 84.4691C102.225 84.125 102.627 83.6662 102.856 83.0353C103.085 82.4044 103.257 81.7735 103.257 81.0279C103.257 80.2823 103.143 79.6514 102.856 79.0205C102.569 78.3897 102.225 77.9882 101.767 77.5867C101.308 77.1852 100.735 77.0705 100.162 77.0705C99.5888 77.0705 99.0156 77.2426 98.5571 77.5867C98.0985 77.9308 97.6973 78.447 97.4107 79.0205C97.1241 79.5941 97.0668 80.2823 97.0668 81.0279C97.0668 81.7735 97.1814 82.4044 97.468 83.0353C97.7546 83.6662 98.0985 84.125 98.5571 84.4691C99.0156 84.8132 99.5888 84.9853 100.162 84.9853C100.735 84.9853 101.308 84.8132 101.767 84.4691Z" fill="#323232"/>
<path id="Vector_3" d="M105.493 74.7765C105.379 74.7191 105.264 74.6044 105.207 74.547C105.149 74.4323 105.149 74.3176 105.149 74.2029C105.149 74.0882 105.207 73.9735 105.264 73.9162C105.321 73.8015 105.379 73.7441 105.493 73.6867C105.608 73.6294 105.723 73.6294 105.837 73.6294C105.952 73.6294 106.067 73.6294 106.181 73.6867C106.296 73.7441 106.353 73.8015 106.41 73.9162C106.468 74.0309 106.525 74.1456 106.525 74.2603C106.525 74.375 106.468 74.4897 106.41 74.547C106.296 74.6044 106.238 74.7191 106.124 74.7765C106.009 74.8338 105.895 74.8338 105.78 74.8338C105.665 74.8338 105.551 74.8338 105.493 74.7765ZM105.379 76.4397H106.238V85.5589H105.379V76.4397Z" fill="#323232"/>
<path id="Vector_4" d="M108.817 85.5586H108.015V76.4394H108.817V77.8732H108.874C109.104 77.4144 109.448 77.0129 109.906 76.7262C110.365 76.4394 110.938 76.3247 111.568 76.3247C112.199 76.3247 112.715 76.4394 113.173 76.7262C113.632 76.9556 113.976 77.3571 114.262 77.8732C114.549 78.3894 114.664 78.963 114.664 79.5939V85.5586H113.861V79.6512C113.861 79.135 113.746 78.6762 113.574 78.2747C113.403 77.8732 113.059 77.5865 112.715 77.4144C112.371 77.2424 111.912 77.0703 111.396 77.0703C110.881 77.0703 110.479 77.185 110.078 77.4144C109.677 77.6438 109.39 77.9306 109.161 78.3321C108.932 78.7336 108.817 79.1924 108.817 79.7086V85.5586Z" fill="#323232"/>
<path id="Vector_5" d="M125.439 76.4395H126.299V85.5586H125.439V84.0675H125.324C125.095 84.5263 124.751 84.9278 124.293 85.2145C123.834 85.5586 123.261 85.6734 122.63 85.6734C122.057 85.6734 121.484 85.5586 121.025 85.2719C120.567 85.0425 120.223 84.641 119.936 84.1248C119.65 83.6086 119.535 83.0351 119.535 82.4042V76.4395H120.452V82.4042C120.452 82.863 120.567 83.3219 120.739 83.7233C120.911 84.0675 121.197 84.3542 121.599 84.5263C121.943 84.7557 122.344 84.8704 122.86 84.8704C123.318 84.8704 123.719 84.7557 124.121 84.5263C124.522 84.2969 124.808 84.0101 125.095 83.6086C125.324 83.2072 125.439 82.7483 125.439 82.2321V76.4395Z" fill="#323232"/>
<path id="Vector_6" d="M132.375 77.472C131.974 77.1852 131.515 77.0705 130.942 77.0705C130.483 77.0705 130.14 77.1279 129.796 77.2999C129.452 77.4146 129.165 77.6441 128.993 77.8735C128.821 78.1602 128.707 78.447 128.707 78.7911C128.707 79.1926 128.821 79.5367 129.108 79.8235C129.394 80.1103 129.853 80.2823 130.426 80.4544L131.802 80.7985C132.547 80.9706 133.063 81.2573 133.464 81.6588C133.865 82.0603 134.037 82.5765 134.037 83.15C134.037 83.6662 133.923 84.125 133.636 84.4691C133.349 84.8706 133.005 85.2147 132.49 85.4441C131.974 85.6162 131.401 85.7309 130.77 85.7309C130.14 85.7309 129.624 85.6162 129.165 85.4441C128.707 85.2721 128.363 84.9853 128.076 84.6412C127.79 84.2971 127.618 83.8382 127.503 83.322H128.42C128.535 83.8382 128.764 84.2971 129.165 84.5838C129.566 84.8706 130.082 84.9853 130.77 84.9853C131.229 84.9853 131.687 84.9279 132.031 84.7559C132.375 84.5838 132.662 84.4118 132.891 84.125C133.12 83.8382 133.177 83.5515 133.177 83.15C133.177 82.7485 133.063 82.4044 132.776 82.1176C132.49 81.8882 132.088 81.6588 131.515 81.5441L130.14 81.2C129.394 81.0279 128.821 80.7411 128.42 80.3397C128.019 79.9382 127.847 79.422 127.847 78.8485C127.847 78.3323 127.961 77.9308 128.248 77.5294C128.535 77.1279 128.879 76.8411 129.337 76.6117C129.796 76.3823 130.312 76.2676 130.942 76.2676C131.515 76.2676 131.974 76.3823 132.432 76.5543C132.891 76.7264 133.177 77.0705 133.407 77.4146C133.693 77.7588 133.865 78.1602 133.923 78.5617H133.063C132.948 78.1029 132.719 77.7588 132.375 77.472Z" fill="#323232"/>
<path id="Vector_7" d="M135.413 88.7701H134.726L135.7 84.6406H136.617L135.413 88.7701Z" fill="#323232"/>
<path id="Vector_8" d="M141.66 73.3994H149.283V75.0053H143.494V78.6759H148.882V80.2818H143.494V84.0098H149.341V85.6157H141.66V73.3994Z" fill="#323232"/>
<path id="Vector_9" d="M155.416 81.4865C155.302 81.4865 155.073 81.4865 154.786 81.5439C154.385 81.5439 154.041 81.6012 153.754 81.6012C153.124 81.6586 152.665 81.7733 152.379 82.0027C152.092 82.2321 151.863 82.5762 151.863 83.0351C151.863 83.3218 151.92 83.5512 152.092 83.7806C152.264 84.0101 152.436 84.1248 152.722 84.2395C153.009 84.3542 153.296 84.4115 153.64 84.3542C154.098 84.3542 154.499 84.2395 154.901 84.0674C155.244 83.8954 155.531 83.6086 155.703 83.3218C155.875 83.0351 155.99 82.6909 155.99 82.2895V79.4218C155.99 79.0777 155.932 78.7909 155.76 78.5615C155.646 78.3321 155.416 78.1027 155.13 77.988C154.843 77.8732 154.499 77.8159 154.098 77.8159C153.582 77.8159 153.181 77.9306 152.837 78.1027C152.493 78.3321 152.321 78.6188 152.207 78.963H150.43C150.487 78.4468 150.659 77.988 151.003 77.5865C151.347 77.185 151.748 76.8982 152.321 76.6688C152.837 76.4394 153.468 76.3247 154.213 76.3247C154.786 76.3247 155.359 76.4394 155.875 76.6115C156.391 76.7835 156.849 77.1277 157.251 77.5865C157.595 78.0453 157.824 78.7336 157.824 79.5365V85.616H156.104V84.2968H156.047C155.818 84.6983 155.531 85.0424 155.073 85.3292C154.614 85.616 154.041 85.7307 153.353 85.7307C152.78 85.7307 152.264 85.616 151.748 85.3865C151.29 85.1571 150.888 84.8704 150.659 84.4115C150.372 84.0101 150.258 83.4939 150.258 82.9203C150.258 81.9453 150.602 81.3145 151.232 80.913C151.863 80.5115 152.665 80.2821 153.697 80.2247C153.983 80.2247 154.27 80.1674 154.614 80.1674C154.958 80.1674 155.302 80.11 155.588 80.11C155.818 80.11 155.99 80.11 156.219 80.11V81.4292C155.76 81.4292 155.531 81.4865 155.416 81.4865Z" fill="#323232"/>
<path id="Vector_10" d="M158.971 76.4396H160.69V77.8735H160.805C160.977 77.3573 161.263 77.0132 161.665 76.7264C162.066 76.4396 162.582 76.2676 163.098 76.2676C163.499 76.2676 163.785 76.2676 163.843 76.3249V78.0455C163.728 78.0455 163.613 77.9882 163.442 77.9882C163.27 77.9882 163.098 77.9308 162.926 77.9308C162.524 77.9308 162.123 78.0455 161.837 78.2176C161.493 78.3897 161.263 78.6191 161.034 78.9632C160.862 79.25 160.748 79.6514 160.748 79.9955V85.5588H158.971V76.4396Z" fill="#323232"/>
<path id="Vector_11" d="M169.173 77.8725H164.187V76.4387H169.173V77.8725ZM167.282 74.2593V82.8623C167.282 83.2064 167.339 83.4358 167.396 83.6079C167.511 83.7799 167.626 83.8947 167.798 83.952C167.97 84.0094 168.141 84.0667 168.371 84.0667C168.485 84.0667 168.543 84.0667 168.657 84.0667C168.772 84.0667 168.887 84.0667 169.001 84.0667H169.231V85.6153C168.887 85.6726 168.543 85.6726 168.141 85.6726C167.683 85.6726 167.224 85.5579 166.823 85.3858C166.422 85.2138 166.078 84.927 165.849 84.5829C165.619 84.2388 165.505 83.7799 165.505 83.2638V74.2593H167.282Z" fill="#323232"/>
<path id="Vector_12" d="M172.039 85.5583H170.262V73.3994H172.039V77.9303H172.153C172.382 77.4142 172.726 77.0127 173.128 76.7259C173.586 76.4391 174.159 76.3244 174.847 76.3244C175.478 76.3244 176.051 76.4391 176.509 76.7259C176.968 76.9553 177.369 77.3568 177.598 77.873C177.828 78.3892 178 79.02 178 79.7656V85.5583H176.223V79.9951C176.223 79.5362 176.165 79.1921 175.994 78.848C175.822 78.5039 175.592 78.2745 175.306 78.1597C175.019 78.045 174.675 77.9303 174.274 77.9303C173.873 77.9303 173.472 78.045 173.128 78.2171C172.784 78.3892 172.554 78.6759 172.382 79.02C172.211 79.3642 172.096 79.7656 172.096 80.2245V85.5583H172.039Z" fill="#323232"/>
</g>
</g>
<defs>
<linearGradient id="paint0_linear_385_3505" x1="92.4233" y1="35.4909" x2="7.34023" y2="0.165957" gradientUnits="userSpaceOnUse">
<stop stop-color="#417E59"/>
<stop offset="1" stop-color="#66A776"/>
</linearGradient>
</defs>
</svg>
